<svg width="32" height="32" viewBox="0 0 32 32" fill="none" xmlns="http://www.w3.org/2000/svg">
<path d="M1.33325 5.33337V13.3334H9.33325" stroke="#111111" stroke-width="2" stroke-linecap="round" stroke-linejoin="round"/>
<path d="M4.67992 20C5.54444 22.4539 7.18303 24.5603 9.34879 26.0018C11.5146 27.4434 14.0902 28.1421 16.6875 27.9926C19.2849 27.8431 21.7634 26.8536 23.7494 25.173C25.7355 23.4925 27.1216 21.212 27.6989 18.6752C28.2762 16.1383 28.0134 13.4826 26.9501 11.1081C25.8868 8.73367 24.0806 6.76907 21.8037 5.51037C19.5268 4.25166 16.9025 3.76703 14.3262 4.1295C11.7499 4.49197 9.36114 5.68191 7.51992 7.52001L1.33325 13.3333" stroke="#111111" stroke-width="2" stroke-linecap="round" stroke-linejoin="round"/>
<path d="M16 9.33337V17.3334L21.3333 20" stroke="#111111" stroke-width="2" stroke-linecap="round" stroke-linejoin="round"/>
</svg>
