<svg class="svg-icon" style="width: 1em; height: 1em;vertical-align: middle;fill: currentColor;overflow: hidden;" viewBox="0 0 1024 1024" version="1.1" xmlns="http://www.w3.org/2000/svg"><path d="M818.992 437.008"  /><path d="M657.904 693.008"  /><path d="M658.096 725.008"  /><path d="M994.224 962.496 744.128 712.432c69.6-73.968 112.32-173.52 112.32-283.104C856.448 201.056 671.392 16 443.104 16 214.832 16 29.776 201.056 29.776 429.328c0 228.272 185.056 413.344 413.328 413.344 95.52 0 183.392-32.48 253.392-86.896L948.752 1008 994.224 962.496zM443.104 787.552c-197.84 0-358.224-160.384-358.224-358.208 0-197.856 160.368-358.224 358.224-358.224 197.824 0 358.224 160.384 358.224 358.224C801.328 627.168 640.928 787.552 443.104 787.552z"  /></svg>